<svg xmlns="http://www.w3.org/2000/svg" viewBox="0 0 55 60">
	<path fill="#6400e6" d="M44,41c-0.256,0-0.512-0.098-0.707-0.293c-0.391-0.391-0.391-1.023,0-1.414l10-10 c0.39-0.391,1.024-0.391,1.414,0c0.391,0.391,0.391,1.023,0,1.414l-10,10C44.512,40.902,44.256,41,44,41z">
	</path>
	<path fill="#6400e6" d="M54,31c-0.256,0-0.512-0.098-0.707-0.293l-10-10c-0.391-0.391-0.391-1.023,0-1.414 c0.39-0.391,1.024-0.391,1.414,0l10,10c0.391,0.391,0.391,1.023,0,1.414C54.512,30.902,54.256,31,54,31z">
	</path>
	<path fill="#6400e6" d="M54,31H20c-0.552,0-1-0.448-1-1s0.448-1,1-1h34c0.552,0,1,0.448,1,1S54.552,31,54,31z">
	</path>
	<path fill="#6400e6" d="M27.282,60H8.718C3.911,60,0,56.089,0,51.282V8.718C0,3.911,3.911,0,8.718,0h18.565 C32.089,0,36,3.911,36,8.718V24c0,0.552-0.448,1-1,1s-1-0.448-1-1V8.718C34,5.014,30.987,2,27.282,2H8.718C5.014,2,2,5.014,2,8.718 v42.564C2,54.986,5.014,58,8.718,58h18.565C30.987,58,34,54.986,34,51.282V36c0-0.552,0.448-1,1-1s1,0.448,1,1v15.283 C36,56.089,32.089,60,27.282,60z">
	</path>
</svg>
